<svg xmlns="http://www.w3.org/2000/svg" width="920" height="510" viewBox="0 0 920 510"><rect width="100%" height="100%" fill="#fff"/><text x="24" y="34" font-family="Arial,sans-serif" font-size="20" font-weight="600">180-repository procedural-minus-neutral effects</text><text x="24" y="72" font-family="Arial,sans-serif" font-size="13" fill="#555">Effect (percentage points)</text><g font-family="Arial,sans-serif" font-size="13" fill="#24303d"><line x1="400" y1="460" x2="850" y2="460" stroke="#737b86"/><line x1="760.0" y1="55" x2="760.0" y2="460" stroke="#737b86"/><text x="22" y="80" class="label">Gemma3  PARALLEL  CLEAN</text><line x1="457.5" y1="76" x2="460.0" y2="76" stroke="#3569a8" stroke-width="3"/><circle cx="459.2" cy="76" r="4.5" fill="#c16a52"/><text x="22" y="112" class="label">Gemma3  PARALLEL  DISRUPT</text><line x1="460.0" y1="108" x2="460.0" y2="108" stroke="#3569a8" stroke-width="3"/><circle cx="460.0" cy="108" r="4.5" fill="#c16a52"/><text x="22" y="144" class="label">Gemma3  SERIAL  CLEAN</text><line x1="430.0" y1="140" x2="445.8" y2="140" stroke="#3569a8" stroke-width="3"/><circle cx="438.3" cy="140" r="4.5" fill="#c16a52"/><text x="22" y="176" class="label">Gemma3  SERIAL  DISRUPT</text><line x1="430.0" y1="172" x2="451.7" y2="172" stroke="#3569a8" stroke-width="3"/><circle cx="440.8" cy="172" r="4.5" fill="#c16a52"/><text x="22" y="208" class="label">InternLM2.5  PARALLEL  CLEAN</text><line x1="524.2" y1="204" x2="552.5" y2="204" stroke="#3569a8" stroke-width="3"/><circle cx="538.3" cy="204" r="4.5" fill="#c16a52"/><text x="22" y="240" class="label">InternLM2.5  PARALLEL  DISRUPT</text><line x1="537.5" y1="236" x2="560.8" y2="236" stroke="#3569a8" stroke-width="3"/><circle cx="549.2" cy="236" r="4.5" fill="#c16a52"/><text x="22" y="272" class="label">InternLM2.5  SERIAL  CLEAN</text><line x1="649.2" y1="268" x2="677.5" y2="268" stroke="#3569a8" stroke-width="3"/><circle cx="663.3" cy="268" r="4.5" fill="#c16a52"/><text x="22" y="304" class="label">InternLM2.5  SERIAL  DISRUPT</text><line x1="632.5" y1="300" x2="660.8" y2="300" stroke="#3569a8" stroke-width="3"/><circle cx="646.7" cy="300" r="4.5" fill="#c16a52"/><text x="22" y="336" class="label">Qwen3  PARALLEL  CLEAN</text><line x1="760.0" y1="332" x2="760.0" y2="332" stroke="#3569a8" stroke-width="3"/><circle cx="760.0" cy="332" r="4.5" fill="#c16a52"/><text x="22" y="368" class="label">Qwen3  PARALLEL  DISRUPT</text><line x1="760.0" y1="364" x2="760.0" y2="364" stroke="#3569a8" stroke-width="3"/><circle cx="760.0" cy="364" r="4.5" fill="#c16a52"/><text x="22" y="400" class="label">Qwen3  SERIAL  CLEAN</text><line x1="696.7" y1="396" x2="719.2" y2="396" stroke="#3569a8" stroke-width="3"/><circle cx="708.3" cy="396" r="4.5" fill="#c16a52"/><text x="22" y="432" class="label">Qwen3  SERIAL  DISRUPT</text><line x1="697.5" y1="428" x2="720.0" y2="428" stroke="#3569a8" stroke-width="3"/><circle cx="709.2" cy="428" r="4.5" fill="#c16a52"/><line x1="400.0" y1="460" x2="400.0" y2="466" stroke="#737b86"/><text x="400.0" y="485" text-anchor="middle">-40</text><line x1="490.0" y1="460" x2="490.0" y2="466" stroke="#737b86"/><text x="490.0" y="485" text-anchor="middle">-30</text><line x1="580.0" y1="460" x2="580.0" y2="466" stroke="#737b86"/><text x="580.0" y="485" text-anchor="middle">-20</text><line x1="670.0" y1="460" x2="670.0" y2="466" stroke="#737b86"/><text x="670.0" y="485" text-anchor="middle">-10</text><line x1="760.0" y1="460" x2="760.0" y2="466" stroke="#737b86"/><text x="760.0" y="485" text-anchor="middle">0</text><line x1="850.0" y1="460" x2="850.0" y2="466" stroke="#737b86"/><text x="850.0" y="485" text-anchor="middle">10</text></g><style>.label{font-size:13px}</style></svg>